<svg width="294" height="270" viewBox="0 0 294 270" fill="none" xmlns="http://www.w3.org/2000/svg">
<path d="M0 134.589C0 208.613 0.160225 269.178 0.32045 269.178C0.640901 269.178 96.776 213.9 102.464 210.455L105.108 208.853L104.867 226.558L104.547 244.263L108.553 241.939C110.796 240.658 153.335 216.063 203.246 187.303C253.076 158.542 293.613 134.749 293.372 134.509C292.09 133.227 105.428 25.7156 105.108 26.0361C104.867 26.1963 104.787 33.9672 104.867 43.3404L105.028 60.2442L102.384 58.6419C97.0964 55.4374 0.640901 -0.00049758 0.32045 -0.00049758C0.160225 -0.00049758 0 60.5646 0 134.589ZM114.241 73.0622C172.562 106.709 220.31 134.348 220.31 134.589C220.31 134.909 38.8546 239.696 11.1356 255.398L6.40901 258.122V135.069C6.40901 47.1858 6.64934 12.0164 7.29024 12.0164C7.77092 12.0164 55.8385 39.495 114.241 73.0622ZM196.756 85.0791C243.622 112.077 281.836 134.509 281.756 134.829C281.676 135.149 243.222 157.581 196.276 184.659L110.956 233.928L110.716 220.549C110.635 213.179 110.635 206.77 110.796 206.289C111.036 205.889 138.755 189.626 172.482 170.239C206.21 150.851 233.849 134.829 233.849 134.589C233.849 134.348 206.21 118.326 172.402 98.8584L110.956 63.5288L110.716 49.8295C110.635 42.2188 110.796 36.0502 111.036 36.0502C111.356 36.0502 149.971 58.1612 196.756 85.0791Z" fill="url(#paint0_linear_580_118)"/>
<defs>
<linearGradient id="paint0_linear_580_118" x1="394.955" y1="134.989" x2="-13.3786" y2="150.579" gradientUnits="userSpaceOnUse">
<stop stop-color="#6123F6"/>
<stop offset="1" stop-color="#262B2E"/>
</linearGradient>
</defs>
</svg>
