<svg width="45" height="36" viewBox="0 0 45 36" fill="none" xmlns="http://www.w3.org/2000/svg">
<g clip-path="url(#clip0_314_193)">
<path d="M28.5845 24.8405H16.4165V2.97559H28.5845V24.8405Z" fill="#FF5F00"/>
<path d="M17.188 13.907C17.1862 11.8015 17.6633 9.7232 18.5833 7.82932C19.5033 5.93544 20.842 4.27562 22.4981 2.97546C20.05 1.04508 17.022 -0.00269164 13.9043 0.00172288C6.22407 0.00172288 -0.000976562 6.22812 -0.000976562 13.9088C-0.000976562 21.5895 6.22542 27.8128 13.9052 27.8128C17.0224 27.8178 20.0501 26.7707 22.4981 24.8408C20.8418 23.5404 19.503 21.8802 18.583 19.9859C17.663 18.0916 17.186 16.0129 17.188 13.907Z" fill="#EB001B"/>
<path d="M45.0001 13.9071C45.0001 21.5878 38.7746 27.8129 31.0948 27.8129C27.9764 27.8181 24.9476 26.771 22.4983 24.8409C24.1532 23.5394 25.4911 21.8792 26.4111 19.9854C27.331 18.0916 27.809 16.0137 27.809 13.9082C27.809 11.8028 27.331 9.72489 26.4111 7.83109C25.4911 5.93728 24.1532 4.27705 22.4983 2.97555C24.9471 1.04414 27.976 -0.00428561 31.0948 1.3167e-05C38.775 1.3167e-05 44.9996 6.22641 44.9996 13.9071" fill="#F79E1B"/>
</g>
<defs>
<clipPath id="clip0_314_193">
<rect width="45" height="35.0094" fill="white"/>
</clipPath>
</defs>
</svg>
