<svg width="45" height="26" viewBox="0 0 45 26" fill="none" xmlns="http://www.w3.org/2000/svg">
<path d="M8.1231 2.8681C9.54604 1.37348 11.434 0.5 13.6512 0.5C17.9714 0.5 20.8357 3.65432 21.3861 8.37921C21.5639 9.91392 21.562 12.0773 21.5601 14.5832V24.7517H15.6175V17.8092C15.6175 17.8092 15.6057 11.8665 15.5703 10.7563C15.409 5.91914 12.5457 2.87989 8.12263 2.87659C6.78836 4.28632 6.07336 6.01016 5.96771 8.64568C5.95356 9.01309 5.95686 10.3162 5.96205 12.0335C5.96205 12.923 5.96724 13.9243 5.96771 14.9638C5.97243 19.4915 5.96771 24.7526 5.96771 24.7526H0.0269428V14.0676C0.0269428 13.7012 0.0203398 13.3324 0.0137369 12.9617C5.934e-05 12.2155 -0.0136182 11.4642 0.0269428 10.7204C0.0939156 9.48001 0.309926 8.26035 0.887213 7.12795C2.21252 4.53393 4.9268 2.86197 7.82031 2.86197C7.92171 2.86197 8.02264 2.86433 8.12263 2.8681H8.1231Z" fill="#7F37FF"/>
<path d="M44.9732 15.1072C45.0133 14.3635 45.0001 13.6117 44.9864 12.866C44.9798 12.4953 44.9732 12.1265 44.9732 11.76V1.07503H39.0305C39.0305 1.07503 39.0258 6.33805 39.0305 10.8639C39.0305 11.9015 39.0338 12.9042 39.0362 13.7942C39.0409 15.5114 39.0447 16.8127 39.0305 17.182C38.9249 19.8175 38.2099 21.5413 36.8756 22.9511C32.4549 22.9501 29.5911 19.9085 29.4303 15.0738C29.394 13.963 29.3789 11.2063 29.3789 8.0152V1.07031L23.4424 1.07597V10.4616C23.4424 10.7251 23.4424 10.9856 23.4424 11.2431C23.4424 13.7489 23.4391 15.9123 23.6164 17.4466C24.1635 22.1719 27.0278 25.3262 31.348 25.3262C33.5647 25.3262 35.4513 24.4528 36.8761 22.9577C36.9761 22.9618 37.0768 22.9638 37.1784 22.9638C40.0724 22.9638 42.7867 21.2933 44.1115 18.6983C44.6907 17.5664 44.9053 16.3462 44.9722 15.1058L44.9732 15.1072Z" fill="#7F37FF"/>
</svg>
