<svg width="57" height="27" viewBox="0 0 57 27" fill="none" xmlns="http://www.w3.org/2000/svg">
<path d="M12.3376 8.37479C13.0656 8.13266 13.8366 8.0476 14.5999 8.1252C15.3632 8.20281 16.1014 8.44132 16.7657 8.82501C17.4301 9.2087 18.0056 9.72886 18.4543 10.3512C18.903 10.9735 19.2147 11.6839 19.3688 12.4355L23.0858 11.6778C22.8247 10.4001 22.2954 9.19232 21.5329 8.13431C20.7704 7.07631 19.7921 6.19214 18.6626 5.54023C17.5331 4.88831 16.2781 4.48349 14.9806 4.35252C13.6831 4.22154 12.3725 4.36738 11.1355 4.78041L12.3376 8.37479Z" fill="#FFCB05"/>
<path d="M7.9528 20.4172L10.4666 17.576C9.89194 17.0675 9.43182 16.4428 9.11668 15.7432C8.80155 15.0435 8.63859 14.2849 8.63859 13.5176C8.63859 12.7503 8.80155 11.9917 9.11668 11.292C9.43182 10.5924 9.89194 9.96765 10.4666 9.45916L7.9528 6.61572C6.97565 7.48033 6.19327 8.5426 5.65742 9.73223C5.12158 10.9219 4.84448 12.2117 4.84448 13.5165C4.84448 14.8212 5.12158 16.1111 5.65742 17.3007C6.19327 18.4903 6.97565 19.5526 7.9528 20.4172Z" fill="#00A4E0"/>
<path d="M19.3687 14.6028C19.118 15.8259 18.4528 16.9249 17.4854 17.7141C16.5179 18.5032 15.3077 18.9342 14.0592 18.934C13.4745 18.935 12.8936 18.84 12.3397 18.6528L11.1365 22.2528C12.3728 22.6637 13.6821 22.8082 14.9783 22.6768C16.2745 22.5453 17.5281 22.1409 18.6568 21.4902C19.7855 20.8394 20.7635 19.9571 21.5267 18.9012C22.2898 17.8452 22.8208 16.6397 23.0845 15.3638L19.3687 14.6028Z" fill="#EF4123"/>
<path d="M26.3347 17.6943C26.1906 17.4542 26.062 17.205 25.9499 16.9484C25.3694 15.6382 25.3262 14.1525 25.8295 12.8107C26.3757 11.3217 27.4197 10.1838 28.7692 9.60162C30.4651 8.87037 32.3394 9.01437 33.9655 9.97905C34.9977 10.5708 35.729 11.4849 36.2847 12.7792C36.3545 12.9479 36.4169 13.1212 36.4794 13.2725L26.3347 17.6943ZM29.722 11.7976C28.5166 12.3151 27.8962 13.4457 28.0261 14.7687L33.1263 12.575C32.2499 11.5428 31.1075 11.2014 29.722 11.7976ZM33.7614 16.5755V16.5783L33.655 16.5057C33.3496 16.9991 32.876 17.4007 32.2769 17.6606C31.1367 18.1561 30.0804 18.0284 29.3204 17.3624L29.2501 17.4682L27.9564 19.4049C28.2782 19.6276 28.6225 19.8161 28.9835 19.9674C30.4128 20.5619 31.8753 20.5327 33.3147 19.9072C34.3565 19.4572 35.1744 18.767 35.7335 17.894L33.7614 16.5755ZM40.0186 6.73174V17.4929L41.6999 18.1713L40.7437 20.3892L38.8874 19.6197C38.5152 19.4584 38.1977 19.1927 37.9734 18.8547C37.7675 18.5392 37.615 18.1038 37.615 17.5216V6.72949L40.0186 6.73174ZM44.356 14.7755C44.3559 14.34 44.4493 13.9096 44.6298 13.5133C44.8103 13.117 45.0737 12.764 45.4023 12.4782L43.685 10.5657C43.089 11.0932 42.6118 11.7411 42.2847 12.4666C41.9577 13.1921 41.7884 13.9788 41.7879 14.7746C41.7874 15.5705 41.9558 16.3573 42.282 17.0833C42.6081 17.8092 43.0846 18.4577 43.6799 18.9858L45.3955 17.0733C45.0686 16.7875 44.8067 16.435 44.6274 16.0396C44.4481 15.6441 44.3556 15.2148 44.356 14.7806V14.7755ZM47.4065 17.8287C47.0777 17.8282 46.7512 17.7746 46.4395 17.6701L45.6189 20.1074C46.3734 20.3598 47.1728 20.4494 47.9644 20.3703C48.7561 20.2912 49.522 20.0452 50.2116 19.6486C50.9013 19.2519 51.4991 18.7136 51.9655 18.0691C52.432 17.4246 52.7566 16.6886 52.9179 15.9095L50.3967 15.3942C50.2554 16.0826 49.8805 16.701 49.3356 17.1447C48.7907 17.5885 48.1092 17.8303 47.4065 17.8293V17.8287ZM47.4138 9.1533C46.8081 9.15297 46.2063 9.24963 45.6312 9.43962L46.444 11.8792C46.854 11.7426 47.2882 11.6946 47.7181 11.7385C48.1479 11.7823 48.5636 11.9169 48.9375 12.1334C49.3114 12.3498 49.6351 12.6433 49.8872 12.9942C50.1392 13.3452 50.3139 13.7456 50.3995 14.1691L52.9207 13.6595C52.6628 12.3888 51.9738 11.2462 50.9703 10.425C49.9668 9.60387 48.7104 9.15463 47.4138 9.1533Z" fill="white"/>
</svg>
