<svg width="57" height="19" viewBox="0 0 57 19" fill="none" xmlns="http://www.w3.org/2000/svg">
<g clip-path="url(#clip0_314_169)">
<path d="M25.1344 18.6956H20.5449L23.4137 1.06567H28.0037L25.1344 18.6956Z" fill="#005CA8"/>
<path d="M16.6834 1.06665L12.3077 13.1913L11.7896 10.5797L10.2456 2.65346C10.2456 2.65346 10.0594 1.06665 8.06813 1.06665H0.834937L0.75 1.36365C0.75 1.36365 2.96287 1.82378 5.55094 3.37965L9.5385 18.6954H14.3197L21.6232 1.06665H16.6834Z" fill="#005CA8"/>
<path d="M52.7857 18.6954H57L53.3251 1.06665H49.6351C47.9313 1.06665 47.5162 2.38065 47.5162 2.38065L40.6711 18.6954H45.4524L46.4086 16.077H52.2474L52.7857 18.6954ZM47.735 12.459L50.147 5.8614L51.5038 12.459H47.735Z" fill="#005CA8"/>
<path d="M41.0301 5.3051L41.6848 1.51667C41.6848 1.51667 39.6638 0.748291 37.5566 0.748291C35.2791 0.748291 29.8701 1.74448 29.8701 6.58479C29.8701 11.141 36.2185 11.1973 36.2185 13.5879C36.2185 15.9785 30.5248 15.5522 28.6455 14.0435L27.9626 18.0013C27.9626 18.0013 30.0118 18.9975 33.1438 18.9975C36.2758 18.9975 41.002 17.3792 41.002 12.963C41.002 8.37973 34.5962 7.95279 34.5962 5.95985C34.5962 3.96692 39.0658 4.22285 41.0301 5.3051Z" fill="#005CA8"/>
<path d="M11.7902 10.5808L10.2456 2.65346C10.2456 2.65346 10.0594 1.06665 8.06813 1.06665H0.834938L0.75 1.36365C0.75 1.36365 4.22681 2.08478 7.56244 4.78421C10.7501 7.36665 11.7902 10.5808 11.7902 10.5808Z" fill="#F6A723"/>
</g>
<defs>
<clipPath id="clip0_314_169">
<rect width="56.25" height="18.2492" fill="white" transform="translate(0.75 0.75)"/>
</clipPath>
</defs>
</svg>
