<svg width="57" height="26" viewBox="0 0 57 26" fill="none" xmlns="http://www.w3.org/2000/svg">
<g clip-path="url(#clip0_314_187)">
<path d="M16.1917 0.75H10.362C7.78624 0.871557 5.68038 1.90929 5.07203 4.04893C4.75519 5.16433 4.58074 6.39003 4.33256 7.54651C3.07309 13.428 1.95544 19.4709 0.75 25.2348H46.1386C49.6475 25.2348 52.0567 24.493 52.7072 21.7085C53.01 20.4141 53.2998 18.9509 53.5891 17.5283C54.7146 11.9862 55.8463 6.44518 57.0017 0.75H16.1917Z" fill="#822124"/>
<path d="M15.7217 9.46159C15.966 9.29276 16.2806 8.52796 15.9215 8.20888C15.809 8.10814 15.6171 8.07888 15.352 8.1239C15.1055 8.16498 14.9642 8.24883 14.868 8.37996C14.7133 8.59043 14.5714 9.2241 14.8117 9.46159C15.052 9.69908 15.5664 9.56852 15.7217 9.46159ZM12.2602 8.21619C12.0846 9.35523 11.8871 10.4712 11.689 11.5872C10.416 11.6007 9.11712 11.6496 7.88973 11.5585C8.12159 10.4667 8.28761 9.30739 8.51778 8.21619H7.14407C6.65334 11.0013 6.20707 13.8303 5.65894 16.5575H7.05853C7.27801 15.1585 7.48342 13.7437 7.77268 12.4155C8.96574 12.3863 10.3963 12.3351 11.5432 12.4442C11.3068 13.8264 11.021 15.159 10.8004 16.5575H12.1999C12.6502 13.7318 13.124 10.9298 13.6856 8.21619H12.2602ZM31.98 10.5708C30.895 10.1324 30.0424 10.873 29.6468 11.5669C29.7363 11.2579 29.7734 10.8966 29.846 10.5708H28.7615C28.497 12.6209 28.1076 14.5462 27.7373 16.49H28.9613C29.1302 15.3363 29.2067 13.7808 29.5871 12.6767C29.891 11.7948 30.6868 11.0446 31.8382 11.4532C31.8511 11.1274 31.9445 10.8792 31.9772 10.5708H31.98ZM32.6643 15.1292C32.5518 14.8377 32.5225 14.356 32.5518 13.9902C32.6148 13.1674 32.9147 12.1662 33.3773 11.7126C34.0155 11.0869 35.2761 11.1904 36.2812 11.5438C36.3122 11.2062 36.3802 10.9028 36.4236 10.5759C34.7752 10.3069 33.2108 10.4746 32.3812 11.3446C31.563 12.1927 31.0329 14.1511 31.4088 15.3864C31.8494 16.8282 33.8242 16.9058 35.423 16.3543C35.4939 16.0645 35.5316 15.7415 35.5918 15.4432C34.7201 15.8929 33.0498 16.1303 32.6615 15.1275L32.6643 15.1292ZM46.4143 10.6012C45.3327 10.0604 44.4323 10.9675 44.0811 11.5117C44.1807 11.2304 44.1869 10.8589 44.2798 10.5725H43.1959C42.9044 12.6041 42.5534 14.5766 42.143 16.49H43.3951C43.403 15.7055 43.5572 15.1253 43.6799 14.356C43.941 12.7132 44.3254 10.9113 46.241 11.4532C46.3046 11.1752 46.3311 10.8601 46.4098 10.5995L46.4143 10.6012ZM14.4656 10.6395C14.433 10.6445 14.4352 10.6839 14.4375 10.7239C14.1713 12.7177 13.81 14.6171 13.4245 16.4916H14.6423C14.9367 14.4618 15.2732 12.4746 15.6953 10.5725L14.4713 10.6395H14.4656ZM25.2336 10.4886C24.3489 10.5567 23.6016 10.8111 23.0697 11.371C22.4181 12.0576 21.8879 13.5754 22.0449 14.9581C22.2656 16.9278 24.7215 16.8597 26.6855 16.3819C26.7193 16.0352 26.8031 15.7398 26.8543 15.4139C26.0451 15.7167 24.6404 16.1388 23.8075 15.6132C23.1778 15.2142 23.1778 14.2079 23.3804 13.334C24.7001 13.2918 26.0727 13.2996 27.3946 13.334C27.4784 12.7149 27.7182 12.0396 27.5071 11.4262C27.2297 10.6181 26.2398 10.4087 25.2308 10.4869L25.2336 10.4886ZM26.4007 12.6575H23.525C23.5881 12.2686 23.7844 11.9138 24.0804 11.6538C24.3764 11.3938 24.7537 11.2449 25.1475 11.2326C26.0293 11.1988 26.6607 11.5562 26.4002 12.6558L26.4007 12.6575ZM20.5851 10.6378C19.5525 10.25 18.2936 10.7132 17.7477 11.1538C17.7477 11.173 17.7347 11.1758 17.7184 11.1775L17.7477 11.1538C17.748 11.1521 17.748 11.1504 17.7477 11.1488C17.7567 10.9597 17.8237 10.8274 17.8327 10.6378H16.782C16.3447 13.5495 15.8253 16.378 15.2783 19.1811H16.4983C16.6751 18.0899 16.7915 16.939 17.0375 15.9171C17.3189 16.9919 19.136 16.7865 19.9042 16.3712C21.4884 15.5141 22.7107 11.4363 20.5851 10.6378ZM19.6222 15.4123C18.9672 16.1056 17.3571 16.0955 17.2311 14.9277C17.1748 14.4212 17.365 13.8877 17.459 13.3621C17.553 12.8365 17.6216 12.3199 17.715 11.8533C18.36 11.0655 20.2559 10.9704 20.4478 12.2805C20.615 13.4167 20.1648 14.8377 19.6222 15.4123ZM50.966 8.01416C50.8613 8.93315 50.7212 9.81501 50.5394 10.6592C47.5393 9.70921 45.6996 11.9169 45.7328 14.6413C45.7396 15.168 45.8302 15.6903 46.1594 16.0634C46.7272 16.7049 48.3542 16.8591 49.1741 16.3189C49.3328 16.2148 49.4955 16.0245 49.6007 15.8923C49.6801 15.7933 49.8056 15.5333 49.8286 15.6109C49.7853 15.8996 49.7206 16.1669 49.7161 16.4922H50.8253C51.0391 13.4257 51.6998 10.8083 52.19 8.01697L50.966 8.01416ZM48.2343 15.8675C47.4104 15.885 47.0007 15.3751 46.9816 14.5293C46.949 13.0481 47.6007 11.4031 48.9181 11.2551C49.5321 11.1865 49.9766 11.3294 50.4269 11.483C50.0138 13.1466 50.1629 15.8259 48.2343 15.8675ZM37.6724 10.5685C37.6121 10.9062 37.5193 11.2129 37.4473 11.5365C38.1698 11.3553 40.4192 10.7998 40.6359 11.7616C40.7079 12.0824 40.5835 12.4223 40.4935 12.6727C38.4597 12.4803 36.8018 12.8179 36.3656 14.267C36.0735 15.2378 36.3983 16.1928 37.0201 16.4618C38.2182 16.9751 39.6758 16.387 40.1806 15.5794C40.1143 15.8782 40.0856 16.1841 40.0951 16.49H41.1486C41.1598 15.4815 41.3067 14.6649 41.4615 13.7572C41.5937 12.9839 41.8424 12.2186 41.8031 11.5365C41.7124 9.97371 39.1237 10.5263 37.6752 10.5685H37.6724ZM39.6668 15.3864C39.0359 16.0054 37.2649 16.1793 37.4461 14.7032C37.5964 13.4769 38.9318 13.2164 40.3781 13.3931C40.2706 14.0639 40.1474 14.9159 39.6668 15.3864Z" fill="white"/>
</g>
<defs>
<clipPath id="clip0_314_187">
<rect width="56.25" height="24.4848" fill="white" transform="translate(0.75 0.75)"/>
</clipPath>
</defs>
</svg>
