<svg width="28" height="22" viewBox="0 0 28 22" fill="none" xmlns="http://www.w3.org/2000/svg">
<path fill-rule="evenodd" clip-rule="evenodd" d="M1.93709 3.75518H4.20034V22H1.93709C0.87048 22 0 21.1295 0 20.0629V5.69007C0 4.62566 0.87048 3.75518 1.93709 3.75518ZM11.5344 0H15.3888C16.5876 0 17.5683 0.980667 17.5683 2.17951V3.34308H16.1799V2.1751C16.1799 1.75418 15.8361 1.4104 15.4152 1.4104H11.508C11.087 1.4104 10.7433 1.75418 10.7433 2.1751V3.34308H9.3549V2.17951C9.3549 0.980667 10.3356 0 11.5344 0ZM5.3507 3.75518H21.4711V22H5.3507V3.75518ZM22.6215 3.75518H25.1425C26.207 3.75518 27.0796 4.62566 27.0796 5.69228V20.0651C27.0796 21.1295 26.2092 22.0022 25.1425 22.0022H22.6215V3.75518Z" fill="#7F37FF"/>
</svg>
