<svg width="30" height="30" viewBox="0 0 30 30" fill="none" xmlns="http://www.w3.org/2000/svg">
<path d="M15 1.875C15.9946 1.875 16.9484 2.27009 17.6516 2.97335C18.3549 3.67661 18.75 4.63044 18.75 5.625V13.125H11.25V5.625C11.25 4.63044 11.6451 3.67661 12.3483 2.97335C13.0516 2.27009 14.0054 1.875 15 1.875ZM20.625 13.125V5.625C20.625 4.13316 20.0324 2.70242 18.9775 1.64752C17.9226 0.592632 16.4918 0 15 0C13.5082 0 12.0774 0.592632 11.0225 1.64752C9.96763 2.70242 9.375 4.13316 9.375 5.625V13.125C8.38044 13.125 7.42661 13.5201 6.72335 14.2233C6.02009 14.9266 5.625 15.8804 5.625 16.875V26.25C5.625 27.2446 6.02009 28.1984 6.72335 28.9016C7.42661 29.6049 8.38044 30 9.375 30H20.625C21.6196 30 22.5734 29.6049 23.2766 28.9016C23.9799 28.1984 24.375 27.2446 24.375 26.25V16.875C24.375 15.8804 23.9799 14.9266 23.2766 14.2233C22.5734 13.5201 21.6196 13.125 20.625 13.125Z" fill="#7F37FF"/>
</svg>
