<svg width="408" height="72" viewBox="0 0 408 72" fill="none" xmlns="http://www.w3.org/2000/svg">
<path d="M38.7826 1.59716C36.8411 4.2589 0.989168 67.3421 0.0831614 69.7377C-0.693416 71.6009 3.3189 71.8671 40.2063 71.8671C62.727 71.8671 81.106 71.6009 81.106 71.2016C81.106 70.8024 79.6823 68.2737 77.9997 65.4789C76.3171 62.8172 67.7748 48.0445 59.103 32.6064C39.6886 -1.59693 40.4652 -0.532234 38.7826 1.59716ZM50.043 39.9262C55.0907 48.5769 59.4913 56.6952 59.8796 57.8929C60.5267 59.6231 58.0676 59.8892 39.818 59.8892C28.2988 59.8892 18.9799 59.6231 18.9799 59.3569C18.9799 57.7598 38.912 23.9558 39.818 23.9558C40.4652 23.9558 44.9952 31.1425 50.043 39.9262Z" fill="url(#paint0_linear_522_69)"/>
<path d="M103.756 1.73009C103.368 2.6617 103.238 18.6321 103.368 37.2643L103.756 71.2015L109.969 71.6007L116.052 72V61.353V50.7061L135.208 50.3068L154.234 49.9076L154.622 44.8503L155.01 39.926H135.596H116.052V35.268V30.743L135.208 30.3438L154.234 29.9445L154.622 25.0203L155.01 20.0961L135.855 19.6968L116.699 19.2976L116.311 15.0388L115.923 10.78L135.078 10.3807L154.234 9.98148L154.622 4.92418L155.01 -3.8147e-05H129.642C110.357 -3.8147e-05 104.144 0.399223 103.756 1.73009Z" fill="url(#paint1_linear_522_69)"/>
<path d="M178.178 5.32344V10.6469H190.474H202.77V41.39V72L208.982 71.6007L215.066 71.2015V55.231C215.066 46.4473 215.195 32.8724 215.454 24.8872L215.713 10.6469H227.361H239.01V5.32344V-3.8147e-05H208.594H178.178V5.32344Z" fill="url(#paint2_linear_522_69)"/>
<path d="M265.155 35.5343L265.543 71.2016L291.17 71.6009L316.668 71.8671V66.5436V61.2201H297.253H277.839V55.8966V50.5732H297.253H316.668V45.2497V39.9262H297.253H277.839V35.2682V30.6101H297.253H316.668V25.2866V19.9632H297.253H277.839V15.3051V10.7801L296.994 10.3809L316.021 9.98163L316.409 4.92432L316.797 0.000106812H290.782H264.896L265.155 35.5343Z" fill="url(#paint3_linear_522_69)"/>
<path d="M349.284 35.5343L349.672 71.2016H355.496H361.321L361.709 58.1591L362.097 45.2497H371.546H380.994L387.077 58.5584L393.031 71.8671H399.503C402.997 71.8671 405.974 71.6009 405.974 71.3347C405.974 71.2016 403.385 65.2127 400.15 58.1591C396.914 51.1055 394.325 44.4512 394.325 43.5195C394.325 42.5879 396.396 40.7247 398.985 39.5269C408.174 35.002 410.892 20.3624 404.55 9.84854C399.761 1.73023 393.678 0.000106812 369.993 0.000106812H349.025L349.284 35.5343ZM370.51 21.9595C372.969 27.8153 374.911 33.0057 374.911 33.538C374.911 34.2035 372.063 34.6027 368.439 34.6027H361.968V22.4918C361.968 11.9779 362.227 10.514 364.039 10.9132C365.333 11.1794 367.922 15.5713 370.51 21.9595ZM390.313 12.6434C394.455 14.7728 395.62 17.0352 395.62 23.0242C395.62 27.1498 392.513 31.941 389.795 31.941C388.372 31.941 380.088 14.6397 380.088 11.8448C380.088 9.98163 386.301 10.514 390.313 12.6434Z" fill="url(#paint4_linear_522_69)"/>
<defs>
<linearGradient id="paint0_linear_522_69" x1="0" y1="36.2888" x2="81.106" y2="36.2888" gradientUnits="userSpaceOnUse">
<stop stop-color="#7F37FF"/>
<stop offset="1" stop-color="#CDAFFC"/>
</linearGradient>
<linearGradient id="paint1_linear_522_69" x1="103.319" y1="36" x2="155.01" y2="36" gradientUnits="userSpaceOnUse">
<stop stop-color="#7F37FF"/>
<stop offset="1" stop-color="#CDAFFC"/>
</linearGradient>
<linearGradient id="paint2_linear_522_69" x1="178.178" y1="36" x2="239.01" y2="36" gradientUnits="userSpaceOnUse">
<stop stop-color="#7F37FF"/>
<stop offset="1" stop-color="#CDAFFC"/>
</linearGradient>
<linearGradient id="paint3_linear_522_69" x1="264.896" y1="35.9336" x2="316.797" y2="35.9336" gradientUnits="userSpaceOnUse">
<stop stop-color="#7F37FF"/>
<stop offset="1" stop-color="#CDAFFC"/>
</linearGradient>
<linearGradient id="paint4_linear_522_69" x1="349.025" y1="35.9336" x2="408" y2="35.9336" gradientUnits="userSpaceOnUse">
<stop stop-color="#7F37FF"/>
<stop offset="1" stop-color="#CDAFFC"/>
</linearGradient>
</defs>
</svg>
