<svg width="367" height="336" viewBox="0 0 367 336" fill="none" xmlns="http://www.w3.org/2000/svg">
<path d="M0 168C0 260.4 0.2 336 0.4 336C0.8 336 120.8 267 127.9 262.7L131.2 260.7L130.9 282.8L130.5 304.9L135.5 302C138.3 300.4 191.4 269.7 253.7 233.8C315.9 197.9 366.5 168.2 366.2 167.9C364.6 166.3 131.6 32.1 131.2 32.5C130.9 32.7 130.8 42.4 130.9 54.1L131.1 75.2L127.8 73.2C121.2 69.2 0.8 0 0.4 0C0.2 0 0 75.6 0 168ZM142.6 91.2C215.4 133.2 275 167.7 275 168C275 168.4 48.5 299.2 13.9 318.8L8 322.2V168.6C8 58.9 8.3 15 9.1 15C9.7 15 69.7 49.3 142.6 91.2ZM245.6 106.2C304.1 139.9 351.8 167.9 351.7 168.3C351.6 168.7 303.6 196.7 245 230.5L138.5 292L138.2 275.3C138.1 266.1 138.1 258.1 138.3 257.5C138.6 257 173.2 236.7 215.3 212.5C257.4 188.3 291.9 168.3 291.9 168C291.9 167.7 257.4 147.7 215.2 123.4L138.5 79.3L138.2 62.2C138.1 52.7 138.3 45 138.6 45C139 45 187.2 72.6 245.6 106.2Z" fill="url(#paint0_linear_465_48)"/>
<defs>
<linearGradient id="paint0_linear_465_48" x1="0" y1="168" x2="366.201" y2="168" gradientUnits="userSpaceOnUse">
<stop stop-color="#7F37FF"/>
<stop offset="1" stop-color="#CDAFFC"/>
</linearGradient>
</defs>
</svg>
